<svg xmlns="http://www.w3.org/2000/svg" width="193" height="192" fill="none"><circle cx="11.599" cy="11.599" r="11.599" fill="url(#a)" opacity=".5" transform="scale(-1 1) rotate(-30 267.508 163.055)"/><circle cx="5.345" cy="5.345" r="5.345" fill="url(#b)" opacity=".5" transform="scale(-1 1) rotate(-30 309.452 183.757)"/><circle cx="96.665" cy="88.98" r="78.314" fill="url(#c)" opacity=".5" transform="rotate(30 96.665 88.98)"/><path fill="url(#d)" stroke="url(#e)" stroke-linecap="round" stroke-linejoin="round" stroke-width=".963" d="M10.105 41.853a33.783 33.783 0 0 1-2.875-15.16A19.62 19.62 0 0 1 18.871 9.605a33.783 33.783 0 0 1 15.16-2.875A19.62 19.62 0 0 1 51.12 18.371a33.783 33.783 0 0 1 2.874 15.16 19.618 19.618 0 0 1-5.844 13.145c-.219.215-.297.524-.33.776a4.99 4.99 0 0 0-.02.921c.035.623.14 1.372.24 2.1l.02.142c.11.786.21 1.535.227 2.125.01.296-.004.525-.036.687a.632.632 0 0 1-.046.15.426.426 0 0 1-.12-.012 2.262 2.262 0 0 1-.566-.237c-.48-.262-1.05-.677-1.662-1.125l-.069-.05c-.575-.422-1.18-.866-1.718-1.175-.28-.161-.566-.3-.837-.377-.263-.076-.582-.114-.88.019a33.782 33.782 0 0 1-15.16 2.874 19.62 19.62 0 0 1-17.088-11.64Zm38.118 11.721-.002.001h.002Z"/><g filter="url(#f)"><path fill="#fff" fill-rule="evenodd" d="M34.948 42.085a2.371 2.371 0 1 1-4.66.883 2.371 2.371 0 0 1 4.66-.883Z" clip-rule="evenodd"/><path stroke="url(#g)" stroke-linecap="round" stroke-linejoin="round" stroke-width="1.207" d="M33.173 45.45a2.975 2.975 0 1 0-1.109-5.846 2.975 2.975 0 0 0 1.109 5.845Z"/></g><path fill="#fff" stroke="url(#h)" stroke-linecap="round" stroke-width="1.207" d="M31.027 17.54a3.018 3.018 0 0 0-5.931 1.124l2.924 15.421a3.018 3.018 0 0 0 5.931-1.125l-2.924-15.42Z"/><circle cx="96" cy="89" r="49" fill="url(#i)"/><circle cx="96" cy="89" r="49" fill="url(#j)"/><g clip-path="url(#k)"><path fill="url(#l)" d="M106.461 96.574c-.41.397-.881.423-.881.423a1.375 1.375 0 0 1-.799-.204c-.563-.332-.733-.93-1.018-1.71-.129-.351-.524-1.43-.907-2.131-.653-1.195-1.58-1.858-2.114-2.24 0 0-1.138-.809-2.96-1.303a7.267 7.267 0 0 0-.892-.18 6.77 6.77 0 0 0-.838-.05 7.017 7.017 0 0 0-.82.037 7.576 7.576 0 0 0-1.016.193c-1.799.478-2.96 1.304-2.96 1.304-.533.381-1.46 1.044-2.113 2.24-.383.7-.778 1.78-.907 2.13-.285.78-.455 1.378-1.018 1.71-.102.06-.403.233-.799.204 0 0-.47-.025-.88-.423-.777-.753-.516-2.377-.414-2.972.492-2.856 2.208-4.8 2.448-5.064 0 0 2.315-2.555 6.018-3.302A13.505 13.505 0 0 1 96 85c.115 0 1.26.005 2.408.236 3.703.747 6.018 3.302 6.018 3.302.24.264 1.956 2.207 2.448 5.064.102.595.363 2.22-.413 2.972Z"/><path fill="#110A01" d="M106.461 96.574c-.41.397-.881.423-.881.423a1.375 1.375 0 0 1-.799-.204c-.563-.332-.733-.93-1.018-1.71-.129-.351-.524-1.43-.907-2.131-.653-1.195-1.58-1.858-2.114-2.24 0 0-1.138-.809-2.96-1.303a7.267 7.267 0 0 0-.892-.18 6.77 6.77 0 0 0-.838-.05 7.017 7.017 0 0 0-.82.037 7.576 7.576 0 0 0-1.016.193c-1.799.478-2.96 1.304-2.96 1.304-.533.381-1.46 1.044-2.113 2.24-.383.7-.778 1.78-.907 2.13-.285.78-.455 1.378-1.018 1.71-.102.06-.403.233-.799.204 0 0-.47-.025-.88-.423-.777-.753-.516-2.377-.414-2.972.492-2.856 2.208-4.8 2.448-5.064 0 0 2.315-2.555 6.018-3.302A13.505 13.505 0 0 1 96 85c.115 0 1.26.005 2.408.236 3.703.747 6.018 3.302 6.018 3.302.24.264 1.956 2.207 2.448 5.064.102.595.363 2.22-.413 2.972Z"/><mask id="m" width="22" height="13" x="85" y="85" maskUnits="userSpaceOnUse" style="mask-type:alpha"><path fill="#110A01" d="M106.461 96.574c-.41.397-.881.423-.881.423a1.375 1.375 0 0 1-.799-.204c-.562-.332-.733-.93-1.018-1.71-.128-.351-.524-1.43-.906-2.131-.654-1.195-1.581-1.858-2.114-2.24 0 0-1.139-.809-2.96-1.303a7.267 7.267 0 0 0-.892-.18 6.77 6.77 0 0 0-.839-.05 7.017 7.017 0 0 0-.82.037 7.576 7.576 0 0 0-1.015.193c-1.8.477-2.96 1.304-2.96 1.304-.533.381-1.46 1.044-2.114 2.239-.383.7-.778 1.78-.906 2.132-.285.778-.456 1.377-1.018 1.71-.103.06-.404.232-.8.203 0 0-.47-.026-.88-.423-.777-.753-.516-2.377-.413-2.972.491-2.857 2.207-4.8 2.448-5.065 0 0 2.314-2.554 6.018-3.301A13.505 13.505 0 0 1 96 85c.115 0 1.26.005 2.408.236 3.704.747 6.018 3.301 6.018 3.301.241.265 1.957 2.208 2.448 5.064.103.596.364 2.22-.413 2.973Z"/></mask><g filter="url(#n)" mask="url(#m)" opacity=".5"><path stroke="#CCC" stroke-linecap="round" stroke-width="1.688" d="M83.104 94.998C85.12 91.879 90.093 84.86 96.38 85c6.287.14 10.282 6.527 12.327 10"/></g></g><ellipse cx="72.571" cy="82.571" fill="#0C0A08" rx="4.89" ry="5.646" transform="rotate(7.339 72.571 82.571)"/><path fill="url(#o)" d="M75.658 78.548c1.166 1.167 1.84 3.852.468 5.774-1.373 1.922-5.79.064-6.882-1.335-1.092-1.4 1.096-4.366 2.284-5.293 1.19-.928 2.965-.313 4.13.854Z" opacity=".7"/><ellipse cx="4.89" cy="5.646" fill="#0C0A08" rx="4.89" ry="5.646" transform="scale(-1 1) rotate(7.338 -657.04 -925.054)"/><path fill="url(#p)" d="M116.292 78.69c-1.172 1.175-1.854 3.874-.478 5.804 1.375 1.93 5.815.056 6.914-1.352 1.099-1.408-1.094-4.386-2.287-5.317-1.192-.93-2.976-.31-4.149.865Z" opacity=".7"/><defs><linearGradient id="a" x1="10.652" x2="14.699" y1="23.198" y2="1.074" gradientUnits="userSpaceOnUse"><stop stop-color="#F6E35F"/><stop offset=".664" stop-color="#FFC550"/></linearGradient><linearGradient id="b" x1="9.562" x2="1.173" y1="6.278" y2="4.671" gradientUnits="userSpaceOnUse"><stop stop-color="#F6E35F"/><stop offset=".664" stop-color="#FFC550"/></linearGradient><linearGradient id="c" x1="90.272" x2="117.597" y1="167.294" y2="17.915" gradientUnits="userSpaceOnUse"><stop stop-color="#F6E35F"/><stop offset=".664" stop-color="#F7E151"/></linearGradient><linearGradient id="d" x1="49.514" x2="12.79" y1="2.633" y2="62.287" gradientUnits="userSpaceOnUse"><stop stop-color="#FFE082"/><stop offset=".825" stop-color="#FCB016"/></linearGradient><linearGradient id="e" x1="41.339" x2="16.938" y1="6.061" y2="59.914" gradientUnits="userSpaceOnUse"><stop stop-color="#FFEE96"/><stop offset="1" stop-color="#FFC83A"/></linearGradient><linearGradient id="g" x1="32.177" x2="33.06" y1="40.197" y2="44.856" gradientUnits="userSpaceOnUse"><stop stop-color="#FDBC3C"/><stop offset="1" stop-color="#FFD871"/></linearGradient><linearGradient id="h" x1="27.612" x2="31.435" y1="15.729" y2="35.895" gradientUnits="userSpaceOnUse"><stop stop-color="#FDBC3C"/><stop offset="1" stop-color="#FFD871"/></linearGradient><linearGradient id="i" x1="96" x2="96" y1="40" y2="138" gradientUnits="userSpaceOnUse"><stop stop-color="#A1F66A"/><stop offset=".476" stop-color="#8BFD98"/><stop offset="1" stop-color="#4CDFAF"/></linearGradient><linearGradient id="j" x1="96" x2="96" y1="40" y2="138" gradientUnits="userSpaceOnUse"><stop stop-color="#F8E33B"/><stop offset=".476" stop-color="#EEC91B"/><stop offset="1" stop-color="#ED8703"/></linearGradient><linearGradient id="l" x1="95.999" x2="95.999" y1="99.613" y2="77.181" gradientUnits="userSpaceOnUse"><stop stop-color="#0C0A08"/><stop offset=".395" stop-color="#322315"/><stop offset=".835" stop-color="#AB681B"/></linearGradient><radialGradient id="o" cx="0" cy="0" r="1" gradientTransform="matrix(-3.64923 3.45236 -3.318 -3.50722 76.08 78.8)" gradientUnits="userSpaceOnUse"><stop stop-color="#fff"/><stop offset="1" stop-color="#030303"/></radialGradient><radialGradient id="p" cx="0" cy="0" r="1" gradientTransform="rotate(43.428 -41.184 184.948) scale(5.03977 4.85826)" gradientUnits="userSpaceOnUse"><stop stop-color="#fff"/><stop offset="1" stop-color="#030303"/></radialGradient><filter id="f" width="45.051" height="45.051" x="18.619" y="30.422" color-interpolation-filters="sRGB" filterUnits="userSpaceOnUse"><feFlood flood-opacity="0" result="BackgroundImageFix"/><feColorMatrix in="SourceAlpha" result="hardAlpha" values="0 0 0 0 0 0 0 0 0 0 0 0 0 0 0 0 0 0 127 0"/><feOffset dx="8.526" dy="10.421"/><feGaussianBlur stdDeviation="9.473"/><feComposite in2="hardAlpha" operator="out"/><feColorMatrix values="0 0 0 0 0.122396 0 0 0 0 0.625 0 0 0 0 0.5891 0 0 0 0.2 0"/><feBlend in2="BackgroundImageFix" result="effect1_dropShadow_14982_2997"/><feBlend in="SourceGraphic" in2="effect1_dropShadow_14982_2997" result="shape"/></filter><filter id="n" width="33.091" height="17.49" x="79.36" y="81.254" color-interpolation-filters="sRGB" filterUnits="userSpaceOnUse"><feFlood flood-opacity="0" result="BackgroundImageFix"/><feBlend in="SourceGraphic" in2="BackgroundImageFix" result="shape"/><feGaussianBlur result="effect1_foregroundBlur_14982_2997" stdDeviation="1.45"/></filter><clipPath id="k"><path fill="#fff" d="M85 85h22v12H85z"/></clipPath></defs></svg>